<svg width="22" height="22" viewBox="0 0 22 22" fill="none" xmlns="http://www.w3.org/2000/svg">
<path d="M9.15848 12.817C9.15848 13.7647 8.47098 14.0643 7.62634 14.0643H5.41161V11.4665H7.67054C8.58393 11.4714 9.15848 11.8496 9.15848 12.817ZM8.78036 8.77545C8.78036 7.90625 8.10759 7.7 7.36116 7.7H5.41652V9.9H7.51339C8.25491 9.9 8.78036 9.57589 8.78036 8.77545ZM15.2772 9.91473C14.3786 9.91473 13.7795 10.4746 13.7205 11.3732H16.775C16.6915 10.4647 16.2201 9.91473 15.2772 9.91473ZM22 2.35714V19.6429C22 20.9442 20.9442 22 19.6429 22H2.35714C1.0558 22 0 20.9442 0 19.6429V2.35714C0 1.0558 1.0558 0 2.35714 0H19.6429C20.9442 0 22 1.0558 22 2.35714ZM13.3424 7.51339H17.1629V6.58527H13.3424V7.51339ZM11.2308 12.9299C11.2308 11.7464 10.671 10.725 9.51205 10.396C10.3567 9.9933 10.7987 9.52679 10.7987 8.57902C10.7987 6.70312 9.39911 6.24643 7.78348 6.24643H3.33929V15.675H7.91116C9.625 15.6652 11.2308 14.8451 11.2308 12.9299ZM18.6607 12.2031C18.6607 10.1848 17.4772 8.50045 15.3411 8.50045C13.2589 8.50045 11.8496 10.0621 11.8496 12.1147C11.8496 14.2411 13.1902 15.6996 15.3411 15.6996C16.9714 15.6996 18.0272 14.9679 18.5379 13.4013H16.883C16.7013 13.9857 15.9696 14.2902 15.4 14.2902C14.3 14.2902 13.7254 13.6469 13.7254 12.5567H18.646C18.6509 12.4438 18.6607 12.321 18.6607 12.2031Z" fill="#E4DCF4"/>
</svg>
