<svg width="22" height="22" viewBox="0 0 22 22" fill="none" xmlns="http://www.w3.org/2000/svg">
<path d="M20.7898 1.21017C19.9827 0.403023 19.0115 0 17.8751 0H4.12493C2.98854 0 2.01732 0.403023 1.21017 1.21017C0.403023 2.01732 0 2.98854 0 4.12493V17.8751C0 19.0115 0.403023 19.9827 1.21017 20.7898C2.01732 21.597 2.98854 22 4.12493 22H7.3337C7.54292 22 7.70039 21.9923 7.8061 21.978C7.92909 21.9533 8.0401 21.8877 8.12103 21.7919C8.22564 21.6818 8.27849 21.5221 8.27849 21.3129L8.27078 20.3384C8.26638 19.7173 8.26418 19.2262 8.26418 18.8628L7.93383 18.9201C7.72461 18.9586 7.46033 18.9751 7.1399 18.9707C6.8059 18.9646 6.47297 18.931 6.14445 18.8705C5.79473 18.8059 5.46551 18.6587 5.18424 18.4411C4.88968 18.2182 4.66997 17.9109 4.55438 17.5601L4.41123 17.2298C4.29058 16.9692 4.13899 16.7241 3.95976 16.4997C3.75494 16.2321 3.54682 16.0516 3.3365 15.9558L3.2374 15.8842C3.16829 15.8347 3.10544 15.777 3.0502 15.7124C2.99745 15.6524 2.95402 15.5849 2.92137 15.512C2.89274 15.4448 2.91696 15.3898 2.99294 15.3468C3.07002 15.3028 3.20767 15.2818 3.40918 15.2818L3.69548 15.3259C3.88598 15.3633 4.12273 15.4779 4.40352 15.6684C4.68769 15.8621 4.92506 16.1168 5.09835 16.4138C5.31858 16.8047 5.58286 17.1032 5.89339 17.3091C6.20391 17.5139 6.51664 17.6174 6.83157 17.6174C7.1465 17.6174 7.41849 17.5932 7.64863 17.5458C7.87119 17.4998 8.08745 17.4273 8.29281 17.33C8.3787 16.6913 8.61214 16.198 8.99424 15.8544C8.49914 15.8059 8.00844 15.7198 7.5264 15.5968C7.05598 15.4675 6.60357 15.28 6.17969 15.0385C5.73619 14.797 5.34447 14.4708 5.02678 14.0783C4.72176 13.6962 4.47069 13.1952 4.27469 12.5752C4.07978 11.9542 3.98178 11.2373 3.98178 10.4257C3.98178 9.27063 4.35838 8.2873 5.11267 7.47465C4.7603 6.60694 4.79333 5.63241 5.21287 4.55438C5.49037 4.46739 5.9011 4.53236 6.44507 4.74708C6.98904 4.96181 7.38766 5.1457 7.64092 5.29766C7.89419 5.45182 8.0968 5.58066 8.24986 5.68527C9.14508 5.43614 10.0702 5.31091 10.9994 5.31308C11.9453 5.31308 12.8615 5.43751 13.7501 5.68527L14.2941 5.34171C14.7125 5.09048 15.1539 4.87958 15.6122 4.71185C16.1187 4.52025 16.5041 4.46849 16.7728 4.55438C17.2023 5.63352 17.2397 6.60694 16.8862 7.47575C17.6405 8.2873 18.0182 9.27063 18.0182 10.4268C18.0182 11.2384 17.9202 11.9575 17.7242 12.5818C17.5293 13.2073 17.276 13.7083 16.9655 14.086C16.6422 14.4735 16.2489 14.7966 15.806 15.0385C15.3435 15.2962 14.8942 15.4823 14.4593 15.5968C13.9773 15.7202 13.4866 15.8067 12.9914 15.8555C13.487 16.285 13.7358 16.9622 13.7358 17.8883V21.3129C13.7358 21.4747 13.7589 21.6058 13.8074 21.706C13.8297 21.7543 13.8614 21.7976 13.9008 21.8333C13.9401 21.8691 13.9863 21.8966 14.0364 21.9141C14.1421 21.9515 14.2346 21.9758 14.3161 21.9846C14.3976 21.9956 14.5143 21.9989 14.6663 21.9989H17.8751C19.0115 21.9989 19.9827 21.5959 20.7898 20.7887C21.5959 19.9827 22 19.0104 22 17.874V4.12493C22 2.98854 21.597 2.01732 20.7898 1.21017Z" fill="#E4DCF4"/>
</svg>
