<svg width="23" height="18" viewBox="0 0 23 18" fill="none" xmlns="http://www.w3.org/2000/svg">
<g id="&#240;&#159;&#166;&#134; icon &#34;Alternate GitHub&#34;">
<path id="Vector" d="M9.02958 12.4074C9.02958 13.3871 8.53 14.9902 7.3475 14.9902C6.165 14.9902 5.66542 13.3871 5.66542 12.4074C5.66542 11.4278 6.165 9.82471 7.3475 9.82471C8.53 9.82471 9.02958 11.4278 9.02958 12.4074ZM22.5 10.0403C22.5 11.5356 22.3533 13.1199 21.6979 14.4933C19.9608 18.0838 15.185 17.9995 11.7658 17.9995C8.29167 17.9995 3.23167 18.126 1.42583 14.4933C0.756667 13.134 0.5 11.5356 0.5 10.0403C0.5 8.07632 1.13708 6.22013 2.40208 4.71548C2.16375 3.97488 2.04917 3.19678 2.04917 2.42805C2.04917 1.42027 2.27375 0.914035 2.71833 0C4.79458 0 6.12375 0.421862 7.705 1.68745C9.03417 1.36402 10.4 1.21871 11.7704 1.21871C13.0079 1.21871 14.2546 1.35465 15.4554 1.64995C17.0138 0.398425 18.3429 0 20.3962 0C20.8454 0.914035 21.0654 1.42027 21.0654 2.42805C21.0654 3.19678 20.9463 3.96082 20.7125 4.68736C21.9729 6.20607 22.5 8.07632 22.5 10.0403ZM19.5529 12.4074C19.5529 10.3497 18.3292 8.53568 16.1842 8.53568C15.3179 8.53568 14.4883 8.69505 13.6175 8.81693C12.9346 8.92473 12.2517 8.96692 11.5504 8.96692C10.8538 8.96692 10.1708 8.92473 9.48333 8.81693C8.62625 8.69505 7.7875 8.53568 6.91667 8.53568C4.77167 8.53568 3.54792 10.3497 3.54792 12.4074C3.54792 16.5229 7.23292 17.1557 10.4412 17.1557H12.6504C15.8725 17.1557 19.5529 16.5276 19.5529 12.4074ZM15.7671 9.82471C14.5846 9.82471 14.085 11.4278 14.085 12.4074C14.085 13.3871 14.5846 14.9902 15.7671 14.9902C16.9496 14.9902 17.4492 13.3871 17.4492 12.4074C17.4492 11.4278 16.9496 9.82471 15.7671 9.82471Z" fill="#E4DCF4"/>
</g>
</svg>
