<svg width="22" height="22" viewBox="0 0 22 22" fill="none" xmlns="http://www.w3.org/2000/svg">
<g id="&#240;&#159;&#166;&#134; icon &#34;Instagram&#34;">
<path id="Vector" d="M11.0025 5.36074C7.88098 5.36074 5.36319 7.87853 5.36319 11C5.36319 14.1215 7.88098 16.6393 11.0025 16.6393C14.1239 16.6393 16.6417 14.1215 16.6417 11C16.6417 7.87853 14.1239 5.36074 11.0025 5.36074ZM11.0025 14.6663C8.98528 14.6663 7.3362 13.0221 7.3362 11C7.3362 8.97792 8.98037 7.33375 11.0025 7.33375C13.0245 7.33375 14.6687 8.97792 14.6687 11C14.6687 13.0221 13.0196 14.6663 11.0025 14.6663ZM18.1877 5.13006C18.1877 5.86135 17.5988 6.4454 16.8724 6.4454C16.1411 6.4454 15.5571 5.85644 15.5571 5.13006C15.5571 4.40368 16.146 3.81473 16.8724 3.81473C17.5988 3.81473 18.1877 4.40368 18.1877 5.13006ZM21.9227 6.46503C21.8393 4.70307 21.4368 3.14233 20.146 1.85644C18.8601 0.570555 17.2994 0.168101 15.5374 0.0797573C13.7215 -0.0233102 8.27853 -0.0233102 6.46258 0.0797573C4.70552 0.163193 3.14479 0.565647 1.85399 1.85154C0.56319 3.13743 0.165644 4.69816 0.0773006 6.46013C-0.0257669 8.27608 -0.0257669 13.719 0.0773006 15.535C0.160736 17.2969 0.56319 18.8577 1.85399 20.1436C3.14479 21.4295 4.70061 21.8319 6.46258 21.9202C8.27853 22.0233 13.7215 22.0233 15.5374 21.9202C17.2994 21.8368 18.8601 21.4344 20.146 20.1436C21.4319 18.8577 21.8344 17.2969 21.9227 15.535C22.0258 13.719 22.0258 8.28098 21.9227 6.46503ZM19.5767 17.4834C19.1939 18.4454 18.4528 19.1865 17.4859 19.5742C16.038 20.1485 12.6025 20.016 11.0025 20.016C9.40245 20.016 5.96196 20.1436 4.51902 19.5742C3.55705 19.1914 2.81595 18.4503 2.42822 17.4834C1.85399 16.0356 1.9865 12.6 1.9865 11C1.9865 9.4 1.8589 5.95951 2.42822 4.51657C2.81104 3.5546 3.55215 2.8135 4.51902 2.42577C5.96687 1.85154 9.40245 1.98405 11.0025 1.98405C12.6025 1.98405 16.0429 1.85644 17.4859 2.42577C18.4479 2.80859 19.189 3.5497 19.5767 4.51657C20.1509 5.96442 20.0184 9.4 20.0184 11C20.0184 12.6 20.1509 16.0405 19.5767 17.4834Z" fill="#E4DCF4"/>
</g>
</svg>
