<svg width="19" height="22" viewBox="0 0 19 22" fill="none" xmlns="http://www.w3.org/2000/svg">
<path d="M14.7281 10.1961C14.6327 10.1508 14.5364 10.1074 14.4393 10.0659C14.2697 6.93642 12.5602 5.14525 9.68917 5.12692H9.65067C7.93283 5.12692 6.50558 5.86025 5.6265 7.194L7.205 8.27658C7.86133 7.28017 8.89167 7.0675 9.65158 7.0675H9.67725C10.6223 7.07392 11.3364 7.34892 11.7975 7.88517C12.1339 8.27475 12.3585 8.81467 12.4694 9.49483C11.5728 9.34924 10.6626 9.30527 9.75608 9.36375C7.02717 9.52142 5.27175 11.1128 5.39 13.3247C5.44958 14.4467 6.00875 15.4119 6.96392 16.0426C7.77058 16.5761 8.811 16.8364 9.89267 16.7777C11.3199 16.6989 12.4392 16.1544 13.2202 15.1589C13.8142 14.4027 14.1891 13.4227 14.355 12.188C15.0352 12.5987 15.5393 13.1386 15.818 13.7876C16.2919 14.8922 16.3194 16.7062 14.839 18.1848C13.5419 19.481 11.9827 20.0411 9.62683 20.0585C7.01342 20.0402 5.03617 19.2014 3.751 17.5679C2.54742 16.0371 1.92592 13.8279 1.903 11C1.92592 8.17208 2.54742 5.962 3.751 4.43208C5.03617 2.79858 7.0125 1.96075 9.62683 1.9415C12.2586 1.95983 14.2697 2.80317 15.6044 4.444C16.2589 5.24975 16.7521 6.26175 17.0775 7.4415L18.9273 6.94833C18.5332 5.49542 17.9126 4.24417 17.0692 3.20558C15.3578 1.1 12.8553 0.022 9.63325 0H9.62042C6.402 0.022 3.92975 1.10458 2.26783 3.2175C0.788333 5.09667 0.0256667 7.71375 0 10.9927V11.0073C0.0256667 14.2872 0.788333 16.9024 2.26692 18.7825C3.92883 20.8954 6.40292 21.978 9.62042 22H9.63325C12.4933 21.9798 14.509 21.2309 16.1691 19.5718C18.3425 17.4011 18.2774 14.6804 17.5606 13.0103C17.0472 11.8122 16.0673 10.8396 14.7281 10.1961ZM9.79 14.839C8.59375 14.9068 7.35167 14.3697 7.28933 13.2202C7.2435 12.3677 7.89617 11.4153 9.86333 11.3025C10.0888 11.2888 10.3097 11.2833 10.527 11.2833C11.242 11.2833 11.9093 11.352 12.5171 11.4849C12.2907 14.3156 10.9615 14.7748 9.79 14.839Z" fill="#E4DCF4"/>
</svg>
