<svg width="23" height="18" viewBox="0 0 23 18" fill="none" xmlns="http://www.w3.org/2000/svg">
<g id="&#240;&#159;&#166;&#134; icon &#34;Twitter&#34;">
<path id="Vector" d="M20.2386 4.519C20.2526 4.71443 20.2526 4.90989 20.2526 5.10532C20.2526 11.066 15.7158 17.934 7.42388 17.934C4.86929 17.934 2.49621 17.1941 0.5 15.9099C0.862958 15.9518 1.21191 15.9658 1.58883 15.9658C3.69667 15.9658 5.63706 15.2538 7.18656 14.0394C5.20432 13.9975 3.54314 12.6993 2.9708 10.9124C3.25001 10.9543 3.52918 10.9822 3.82236 10.9822C4.22717 10.9822 4.63202 10.9264 5.0089 10.8287C2.94291 10.4099 1.39337 8.59517 1.39337 6.40354V6.34772C1.9936 6.68275 2.69163 6.89213 3.43143 6.92002C2.21695 6.11036 1.4213 4.72839 1.4213 3.16493C1.4213 2.32737 1.64461 1.55961 2.03549 0.889549C4.25505 3.62559 7.59138 5.41237 11.3325 5.60784C11.2627 5.27281 11.2208 4.92386 11.2208 4.57486C11.2208 2.09006 13.231 0.0659637 15.7297 0.0659637C17.0279 0.0659637 18.2005 0.61038 19.0241 1.48982C20.0431 1.2944 21.0203 0.917479 21.8858 0.400992C21.5507 1.44797 20.8388 2.32742 19.9036 2.88576C20.8109 2.78809 21.6904 2.53676 22.5 2.18781C21.8859 3.08118 21.1181 3.87683 20.2386 4.519Z" fill="#E4DCF4"/>
</g>
</svg>
